HIERARCHY
ROOT hip
{
  OFFSET 0 0 0
  CHANNELS 6 Xposition Yposition Zposition Zrotation Yrotation Xrotation
  JOINT abdomen
  {
    OFFSET 0 20.6881 -0.73152
    CHANNELS 3 Zrotation Xrotation Yrotation
    JOINT chest
    {
      OFFSET 0 11.7043 -0.48768
      CHANNELS 3 Zrotation Xrotation Yrotation
      JOINT neck
      {
        OFFSET 0 22.1894 -2.19456
        CHANNELS 3 Zrotation Xrotation Yrotation
        JOINT head
        {
          OFFSET -0.24384 7.07133 1.2192
          CHANNELS 3 Zrotation Xrotation Yrotation
          JOINT leftEye
          {
            OFFSET 4.14528 8.04674 8.04672
            CHANNELS 3 Zrotation Xrotation Yrotation
            End Site
            {
              OFFSET 1 0 0
            }
          }
          JOINT rightEye
          {
            OFFSET -3.6576 8.04674 8.04672
            CHANNELS 3 Zrotation Xrotation Yrotation
            End Site
            {
              OFFSET 1 0 0
            }
          }
        }
      }
      JOINT rCollar
      {
        OFFSET -2.68224 19.2634 -4.8768
        CHANNELS 3 Zrotation Xrotation Yrotation
        JOINT rShldr
        {
          OFFSET -8.77824 -1.95073 1.46304
          CHANNELS 3 Zrotation Xrotation Yrotation
          JOINT rForeArm
          {
            OFFSET -28.1742 -1.7115 0.48768
            CHANNELS 3 Zrotation Xrotation Yrotation
            JOINT rHand
            {
              OFFSET -22.5879 0.773209 7.07136
              CHANNELS 3 Zrotation Xrotation Yrotation
              JOINT rThumb1
              {
                OFFSET -1.2192 -0.487915 3.41376
                CHANNELS 3 Zrotation Xrotation Yrotation
                JOINT rThumb2
                {
                  OFFSET -3.37035 -0.52449 3.41376
                  CHANNELS 3 Zrotation Xrotation Yrotation
                  End Site
                  {
                    OFFSET -1.78271 -1.18214 1.43049
                  }
                }
              }
              JOINT rIndex1
              {
                OFFSET -7.75947 0.938293 5.60832
                CHANNELS 3 Zrotation Xrotation Yrotation
                JOINT rIndex2
                {
                  OFFSET -2.54057 -0.884171 1.56538
                  CHANNELS 3 Zrotation Xrotation Yrotation
                  End Site
                  {
                    OFFSET -1.62519 -0.234802 1.16502
                  }
                }
              }
              JOINT rMid1
              {
                OFFSET -8.24714 1.18213 3.41376
                CHANNELS 3 Zrotation Xrotation Yrotation
                JOINT rMid2
                {
                  OFFSET -3.10165 -0.590103 1.0647
                  CHANNELS 3 Zrotation Xrotation Yrotation
                  End Site
                  {
                    OFFSET -2.48547 -0.328903 0.83742
                  }
                }
              }
              JOINT rRing1
              {
                OFFSET -8.82822 0.546677 1.51678
                CHANNELS 3 Zrotation Xrotation Yrotation
                JOINT rRing2
                {
                  OFFSET -2.60934 -0.819778 -0.0198488
                  CHANNELS 3 Zrotation Xrotation Yrotation
                  End Site
                  {
                    OFFSET -2.33842 -0.294052 0.168128
                  }
                }
              }
              JOINT rPinky1
              {
                OFFSET -8.27202 -0.0477905 -0.4584
                CHANNELS 3 Zrotation Xrotation Yrotation
                JOINT rPinky2
                {
                  OFFSET -1.82734 -0.647385 -0.700984
                  CHANNELS 3 Zrotation Xrotation Yrotation
                  End Site
                  {
                    OFFSET -1.69225 -0.51767 -0.607171
                  }
                }
              }
            }
          }
        }
      }
      JOINT lCollar
      {
        OFFSET 2.68224 19.2634 -4.8768
        CHANNELS 3 Zrotation Xrotation Yrotation
        JOINT lShldr
        {
          OFFSET 8.77824 -1.95073 1.46304
          CHANNELS 3 Zrotation Xrotation Yrotation
          JOINT lForeArm
          {
            OFFSET 28.1742 -1.7115 0.48768
            CHANNELS 3 Zrotation Xrotation Yrotation
            JOINT lHand
            {
              OFFSET 22.5879 0.773209 7.07136
              CHANNELS 3 Zrotation Xrotation Yrotation
              JOINT lThumb1
              {
                OFFSET 1.2192 -0.487915 3.41376
                CHANNELS 3 Zrotation Xrotation Yrotation
                JOINT lThumb2
                {
                  OFFSET 3.37035 -0.52449 3.41376
                  CHANNELS 3 Zrotation Xrotation Yrotation
                  End Site
                  {
                    OFFSET 1.78271 -1.18214 1.43049
                  }
                }
              }
              JOINT lIndex1
              {
                OFFSET 7.75947 0.938293 5.60832
                CHANNELS 3 Zrotation Xrotation Yrotation
                JOINT lIndex2
                {
                  OFFSET 2.54057 -0.884171 1.56538
                  CHANNELS 3 Zrotation Xrotation Yrotation
                  End Site
                  {
                    OFFSET 1.62519 -0.234802 1.16502
                  }
                }
              }
              JOINT lMid1
              {
                OFFSET 8.24714 1.18213 3.41376
                CHANNELS 3 Zrotation Xrotation Yrotation
                JOINT lMid2
                {
                  OFFSET 3.10165 -0.590103 1.0647
                  CHANNELS 3 Zrotation Xrotation Yrotation
                  End Site
                  {
                    OFFSET 2.48547 -0.328903 0.83742
                  }
                }
              }
              JOINT lRing1
              {
                OFFSET 8.82822 0.546677 1.51678
                CHANNELS 3 Zrotation Xrotation Yrotation
                JOINT lRing2
                {
                  OFFSET 2.60934 -0.819778 -0.0198488
                  CHANNELS 3 Zrotation Xrotation Yrotation
                  End Site
                  {
                    OFFSET 2.33842 -0.294052 0.168128
                  }
                }
              }
              JOINT lPinky1
              {
                OFFSET 8.27202 -0.0477905 -0.4584
                CHANNELS 3 Zrotation Xrotation Yrotation
                JOINT lPinky2
                {
                  OFFSET 1.82734 -0.647385 -0.700984
                  CHANNELS 3 Zrotation Xrotation Yrotation
                  End Site
                  {
                    OFFSET 1.69225 -0.51767 -0.607171
                  }
                }
              }
            }
          }
        }
      }
    }
  }
  JOINT rButtock
  {
    OFFSET -8.77824 4.35084 1.2192
    CHANNELS 3 Zrotation Xrotation Yrotation
    JOINT rThigh
    {
      OFFSET 0 -1.70687 -2.19456
      CHANNELS 3 Zrotation Xrotation Yrotation
      JOINT rShin
      {
        OFFSET 0 -36.8199 0.73152
        CHANNELS 3 Zrotation Xrotation Yrotation
        JOINT rFoot
        {
          OFFSET 0.73152 -45.1104 -5.12064
          CHANNELS 3 Zrotation Xrotation Yrotation
          End Site
          {
            OFFSET -1.1221 -3.69964 12.103
          }
        }
      }
    }
  }
  JOINT lButtock
  {
    OFFSET 8.77824 4.35084 1.2192
    CHANNELS 3 Zrotation Xrotation Yrotation
    JOINT lThigh
    {
      OFFSET 0 -1.70687 -2.19456
      CHANNELS 3 Zrotation Xrotation Yrotation
      JOINT lShin
      {
        OFFSET 0 -36.8199 0.73152
        CHANNELS 3 Zrotation Xrotation Yrotation
        JOINT lFoot
        {
          OFFSET -0.73152 -45.1104 -5.12064
          CHANNELS 3 Zrotation Xrotation Yrotation
          End Site
          {
            OFFSET 1.1221 -3.69964 12.103
          }
        }
      }
    }
  }
}
MOTION
Frames:	6
Frame Time:	0.00833333
-184.675 84.0179 86.1839 0.0 0.0 0.0 -1.65552 -0.00357569 -0.0452724 -0.4571 0.000154939 -0.079164 4.07393e-14 1.59028e-15 -7.20594e-16 1.22147e-13 9.54166e-15 -2.0919e-15 -0.0 0.0 0.0 -0.0 0.0 0.0 2.05243e-14 6.69733e-17 -1.98785e-16 4.30635e-13 1.88224e-15 -5.1684e-15 7.38719e-12 -2.15801e-12 -2.19458e-13 8.45664e-11 2.4734e-12 -1.31993e-12 1.99474e-10 6.76484e-13 -3.33322e-12 3.44472e-10 1.1609e-12 -5.76714e-12 1.99479e-10 6.74675e-13 -3.33958e-12 7.73091 5.47488 0.417314 1.99473e-10 6.75868e-13 -3.33004e-12 2.90554 0.965183 0.102902 1.9948e-10 6.76365e-13 -3.33481e-12 10.2786 0.731801 0.0259123 1.99467e-10 6.79446e-13 -3.32368e-12 2.22167 -0.733487 -0.20892 2.02279e-14 6.69733e-17 -4.96962e-16 4.2797e-13 1.69588e-15 -6.75868e-15 7.39593e-12 2.25422e-12 -2.22639e-13 8.45543e-11 -1.94737e-12 -1.29767e-12 1.99472e-10 6.60556e-13 -3.3364e-12 3.44493e-10 1.13864e-12 -5.7743e-12 1.99468e-10 6.61158e-13 -3.32686e-12 -7.73091 5.47488 -0.417314 1.99473e-10 6.59866e-13 -3.33958e-12 -2.90554 0.965183 -0.102902 1.99474e-10 6.60065e-13 -3.33799e-12 -10.2786 0.731801 -0.0259123 1.99483e-10 6.64736e-13 -3.34912e-12 -2.22167 -0.733487 0.20892 -2.03217e-16 0.0 -3.88251e-19 -0.803376 -1.9234 -0.003718 -0.008819 -2.07862 -0.0725761 -0.4521 3.99778 0.131442 2.03217e-16 0.0 3.88251e-19 -1.71755 -6.77988 0.164467 -0.00322875 6.71846 -0.084077 0.48207 0.0572812 -0.0558922
-180.094 82.5882 82.1425 -1.4204 71.4058 3.3484 -0.728664 5.61589 -0.928741 0.583639 -0.538635 -0.240193 -0.294121 3.48667 1.63406 -3.114 -9.16907 2.45029 -0.0 0.0 0.0 -0.0 0.0 0.0 7.16576e-14 1.62831e-13 -1.67807e-13 17.7372 14.4196 -2.26957 -6.07775 -3.27036 8.87525 0.000333207 -0.405455 -0.0569779 -3.6141e-10 -3.6836e-11 4.73657e-12 -6.24641e-10 -6.39678e-11 9.28969e-12 -3.61407e-10 -3.68352e-11 4.72673e-12 7.73091 5.47488 0.417314 -3.61411e-10 -3.68338e-11 4.73699e-12 2.90554 0.965183 0.102902 -3.61404e-10 -3.68342e-11 4.73342e-12 10.2786 0.731801 0.0259123 -3.61415e-10 -3.68306e-11 4.74124e-12 2.22167 -0.733487 -0.20892 7.14453e-14 1.62826e-13 -1.68048e-13 -22.6216 7.98471 5.15343 7.33195 -4.32498 -10.1688 -0.000102063 -0.224552 0.0315579 2.3291e-10 -5.72992e-11 -1.77647e-10 4.03394e-10 -9.95508e-11 -3.08132e-10 2.32904e-10 -5.7298e-11 -1.77637e-10 -7.73091 5.47488 -0.417314 2.32911e-10 -5.73e-11 -1.77653e-10 -2.90554 0.965183 -0.102902 2.3291e-10 -5.72995e-11 -1.77649e-10 -10.2786 0.731801 -0.0259123 2.32919e-10 -5.72961e-11 -1.77662e-10 -2.22167 -0.733487 0.20892 -2.03217e-16 0.0 -3.88251e-19 -0.293309 -2.34269 2.42482 0.0122823 3.69261 0.0698483 -1.1022 -1.61266 -4.97744 2.03217e-16 0.0 3.88251e-19 -0.887069 -12.3168 0.674316 0.0236426 14.2648 -0.168169 0.447335 -3.44791 -0.179333
-180.106 82.5832 82.1499 -1.3705 71.241 3.4281 0.4425 11.5526 -1.8934 1.68115 -1.108 -0.410921 -0.826622 7.16288 3.38114 -5.50264 -18.8049 5.25885 -0.0 0.0 0.0 -0.0 0.0 0.0 1.30619e-13 3.45323e-13 -3.5867e-13 37.8949 29.5862 -5.19917 -11.4129 -6.46488 18.3471 -0.000190983 -0.831648 -0.11688 -1.04343e-09 -7.92117e-11 1.93519e-11 -1.80307e-09 -1.37607e-10 3.58866e-11 -1.04343e-09 -7.92082e-11 1.93384e-11 7.73091 5.47488 0.417314 -1.04343e-09 -7.92064e-11 1.93493e-11 2.90554 0.965183 0.102902 -1.04343e-09 -7.92078e-11 1.93471e-11 10.2786 0.731801 0.0259123 -1.04343e-09 -7.92037e-11 1.93511e-11 2.22167 -0.733487 -0.20892 1.30497e-13 3.45313e-13 -3.5885e-13 -48.1493 16.2061 10.9403 13.4342 -8.44053 -21.0964 5.88828e-05 -0.460283 0.0646884 2.60177e-10 -1.23722e-10 -3.90273e-10 4.51718e-10 -2.14923e-10 -6.76994e-10 2.60166e-10 -1.2372e-10 -3.90261e-10 -7.73091 5.47488 -0.417314 2.60177e-10 -1.23723e-10 -3.90283e-10 -2.90554 0.965183 -0.102902 2.60174e-10 -1.23722e-10 -3.90275e-10 -10.2786 0.731801 -0.0259123 2.60183e-10 -1.2372e-10 -3.9029e-10 -2.22167 -0.733487 0.20892 -2.03217e-16 0.0 -3.88251e-19 0.286633 -2.7777 4.99118 0.00312605 9.79609 0.223484 -2.88076 -7.43558 -10.4689 2.03217e-16 0.0 3.88251e-19 0.102187 -18.165 1.24627 0.0782307 22.2417 -0.266816 0.39284 -7.1538 -0.316763
-180.119 82.5779 82.1586 -1.3791 71.1121 3.4564 1.66475 16.838 -2.80255 2.65603 -1.61615 -0.562444 -1.4867 10.4257 4.97544 -6.74676 -27.293 8.17184 -0.0 0.0 0.0 -0.0 0.0 0.0 1.73924e-13 4.88359e-13 -5.03023e-13 57.6896 42.9352 -9.02423 -15.2852 -8.8711 26.9297 -0.00142007 -1.21636 -0.170968 -1.48318e-09 -1.11861e-10 2.08761e-11 -2.56287e-09 -1.94225e-10 3.94033e-11 -1.48318e-09 -1.11855e-10 2.08593e-11 7.73091 5.47488 0.417314 -1.48318e-09 -1.11853e-10 2.0871e-11 2.90554 0.965183 0.102902 -1.48317e-09 -1.11855e-10 2.08699e-11 10.2786 0.731801 0.0259123 -1.48318e-09 -1.11851e-10 2.08711e-11 2.22167 -0.733487 -0.20892 1.7388e-13 4.88344e-13 -5.03151e-13 -72.4321 23.1458 16.6877 17.5582 -11.3407 -31.091 0.000435939 -0.673655 0.0946794 2.99788e-10 -1.73219e-10 -5.26269e-10 5.21196e-10 -3.0093e-10 -9.12847e-10 2.99774e-10 -1.73216e-10 -5.26256e-10 -7.73091 5.47488 -0.417314 2.99788e-10 -1.7322e-10 -5.26281e-10 -2.90554 0.965183 -0.102902 2.99782e-10 -1.73219e-10 -5.26271e-10 -10.2786 0.731801 -0.0259123 2.99792e-10 -1.73218e-10 -5.26288e-10 -2.22167 -0.733487 0.20892 -2.03217e-16 0.0 -3.88251e-19 0.833148 -3.16187 7.28696 -0.0337416 15.2348 0.367066 -5.42015 -12.3957 -15.5602 2.03217e-16 0.0 3.88251e-19 1.09471 -23.3828 1.79741 0.153841 29.3571 -0.369391 0.331842 -10.4581 -0.432423
-180.133 82.5757 82.1601 -1.249 70.9684 3.5946 2.62519 20.511 -3.47123 3.33079 -1.97132 -0.665779 -2.03685 12.6877 6.11814 -7.04103 -33.1145 10.571 -0.0 0.0 0.0 -0.0 0.0 0.0 1.7809e-13 5.32752e-13 -5.31103e-13 73.2516 52.0241 -13.1549 -17.5413 -10.2019 32.9992 -0.00275068 -1.49738 -0.210492 -1.31724e-09 -1.20193e-10 -1.03273e-11 -2.27611e-09 -2.08291e-10 -1.478e-11 -1.31723e-09 -1.20186e-10 -1.03463e-11 7.73091 5.47488 0.417314 -1.31724e-09 -1.20185e-10 -1.03336e-11 2.90554 0.965183 0.102902 -1.31723e-09 -1.20187e-10 -1.03344e-11 10.2786 0.731801 0.0259123 -1.31723e-09 -1.20182e-10 -1.03336e-11 2.22167 -0.733487 -0.20892 1.78094e-13 5.32734e-13 -5.31202e-13 -90.2794 27.6511 21.1625 19.7995 -12.7616 -38.1953 0.000847282 -0.831131 0.116816 3.7026e-10 -1.80401e-10 -4.7069e-10 6.43563e-10 -3.1352e-10 -8.16181e-10 3.70244e-10 -1.80398e-10 -4.70678e-10 -7.73091 5.47488 -0.417314 3.70259e-10 -1.80402e-10 -4.70703e-10 -2.90554 0.965183 -0.102902 3.70252e-10 -1.80401e-10 -4.70693e-10 -10.2786 0.731801 -0.0259123 3.70262e-10 -1.80401e-10 -4.70709e-10 -2.22167 -0.733487 0.20892 -2.03217e-16 0.0 -3.88251e-19 1.22231 -3.43471 8.90245 -0.0766322 19.0118 0.472426 -7.71479 -15.6433 -19.2475 2.03217e-16 0.0 3.88251e-19 1.85989 -27.0314 2.20717 0.225081 34.3193 -0.453405 0.29045 -12.7585 -0.487346
-180.155 82.6329 82.1597 -1.2449 70.8272 3.6301 3.02884 21.934 -3.72501 3.58806 -2.11062 -0.700956 -2.23641 13.5709 6.57904 -7.08088 -35.3699 11.6085 -0.0 0.0 0.0 -0.0 0.0 0.0 1.17361e-13 4.14875e-13 -3.67028e-13 80.0173 55.4723 -15.3692 -18.3414 -10.6364 35.406 -0.00349595 -1.63649 -0.23006 -9.59868e-11 -8.3583e-11 -1.01161e-10 -1.6588e-10 -1.43734e-10 -1.73989e-10 -9.59838e-11 -8.35773e-11 -1.01181e-10 7.73091 5.47488 0.417314 -9.59854e-11 -8.35759e-11 -1.01166e-10 2.90554 0.965183 0.102902 -9.59779e-11 -8.35784e-11 -1.01168e-10 10.2786 0.731801 0.0259123 -9.59862e-11 -8.3574e-11 -1.01163e-10 2.22167 -0.733487 -0.20892 1.17372e-13 4.14856e-13 -3.67134e-13 -97.4621 29.3354 23.0192 20.5625 -13.1655 -41.0117 0.00108256 -0.910857 0.128024 5.18662e-10 -1.25015e-10 -7.55189e-11 8.99969e-10 -2.17529e-10 -1.30087e-10 5.18648e-10 -1.25012e-10 -7.55071e-11 -7.73091 5.47488 -0.417314 5.18662e-10 -1.25015e-10 -7.5529e-11 -2.90554 0.965183 -0.102902 5.18654e-10 -1.25015e-10 -7.55213e-11 -10.2786 0.731801 -0.0259123 5.18665e-10 -1.25015e-10 -7.55365e-11 -2.22167 -0.733487 0.20892 -2.03217e-16 0.0 -3.88251e-19 1.35747 -3.56036 9.56254 -0.0974529 20.4522 0.513225 -8.68988 -16.8256 -20.6629 2.03217e-16 0.0 3.88251e-19 2.18834 -28.4936 2.35385 0.258027 36.2655 -0.490574 0.293995 -13.6489 -0.448889
